<?xml version="1.0" encoding="UTF-8"?>
<svg xmlns="http://www.w3.org/2000/svg" xmlns:xlink="http://www.w3.org/1999/xlink" width="200px" height="50px" viewBox="0 0 200 50" version="1.1">
<g id="surface1">
<path style=" stroke:none;fill-rule:nonzero;fill:rgb(100%,100%,100%);fill-opacity:1;" d="M 155.601562 9.199219 L 195.601562 9.199219 C 196 9.199219 196.800781 9.601562 196.800781 10 C 197.199219 10.398438 197.601562 10.800781 197.601562 11.199219 L 197.601562 38.800781 C 197.601562 39.199219 197.199219 39.601562 196.800781 40 C 196.800781 40.398438 196 40.800781 195.601562 40.800781 L 155.601562 40.800781 C 155.199219 40.800781 154.800781 40.398438 154.398438 40 C 154 39.601562 154 39.199219 154 38.800781 L 154 11.199219 C 154 10.800781 154 10.398438 154.398438 10 C 154.800781 9.601562 155.199219 9.199219 155.601562 9.199219 Z M 195.601562 11.199219 L 156 11.199219 L 156 38.800781 L 195.601562 38.800781 Z M 195.601562 11.199219 "/>
<path style=" stroke:none;fill-rule:nonzero;fill:rgb(100%,100%,100%);fill-opacity:1;" d="M 2.398438 35.199219 L 2.398438 16.398438 L 6.800781 16.398438 L 14.800781 29.199219 L 12.398438 29.199219 L 20.398438 16.398438 L 24.800781 16.398438 L 24.800781 35.199219 L 19.601562 35.199219 L 19.601562 24 L 20.398438 24 L 14.800781 33.601562 L 12.398438 33.601562 L 6.398438 24 L 7.601562 24 L 7.601562 35.199219 Z M 26.800781 35.199219 L 26.800781 16.398438 L 32 16.398438 L 32 27.601562 L 40 16.398438 L 44.800781 16.398438 L 44.800781 35.199219 L 39.601562 35.199219 L 39.601562 24 L 31.601562 35.199219 Z M 58.800781 35.199219 L 53.601562 26.398438 L 58 23.601562 L 65.199219 35.199219 Z M 46.800781 35.199219 L 46.800781 16.398438 L 52 16.398438 L 52 35.199219 Z M 50.800781 28 L 50.800781 23.601562 L 57.601562 23.601562 L 57.601562 28 Z M 58.398438 26.398438 L 53.601562 26 L 59.199219 16.398438 L 65.199219 16.398438 Z M 74 35.601562 C 72.398438 35.601562 71.199219 35.601562 69.601562 35.199219 C 68.398438 34.398438 67.199219 34 66.398438 32.800781 C 65.199219 32 64.800781 30.800781 64 29.601562 C 63.601562 28.398438 63.199219 27.199219 63.199219 26 C 63.199219 24.398438 63.601562 23.199219 64 22 C 64.800781 20.800781 65.199219 19.601562 66.398438 18.800781 C 67.199219 17.601562 68.398438 17.199219 69.601562 16.800781 C 71.199219 16 72.398438 16 74 16 C 75.601562 16 76.800781 16 78 16.800781 C 79.601562 17.199219 80.398438 17.601562 81.601562 18.800781 C 82.398438 19.601562 83.199219 20.800781 83.601562 22 C 84.398438 23.199219 84.398438 24.398438 84.398438 26 C 84.398438 27.199219 84.398438 28.398438 83.601562 29.601562 C 83.199219 30.800781 82.398438 32 81.601562 32.800781 C 80.398438 34 79.601562 34.398438 78 35.199219 C 76.800781 35.601562 75.601562 35.601562 74 35.601562 Z M 74 31.199219 C 74.800781 31.199219 75.199219 31.199219 76 30.800781 C 76.800781 30.800781 77.199219 30.398438 77.601562 29.601562 C 78 29.199219 78.398438 28.800781 78.800781 28 C 78.800781 27.199219 79.199219 26.800781 79.199219 26 C 79.199219 24.800781 78.800781 24.398438 78.800781 23.601562 C 78.398438 22.800781 78 22.398438 77.601562 22 C 77.199219 21.199219 76.800781 20.800781 76 20.800781 C 75.199219 20.398438 74.800781 20.398438 74 20.398438 C 73.199219 20.398438 72.398438 20.398438 72 20.800781 C 71.199219 20.800781 70.800781 21.199219 70.398438 22 C 70 22.398438 69.601562 22.800781 69.199219 23.601562 C 68.800781 24.398438 68.800781 24.800781 68.800781 26 C 68.800781 26.800781 68.800781 27.199219 69.199219 28 C 69.601562 28.800781 70 29.199219 70.398438 29.601562 C 70.800781 30.398438 71.199219 30.800781 72 30.800781 C 72.398438 31.199219 73.199219 31.199219 74 31.199219 Z M 85.601562 35.601562 C 85.199219 35.601562 84.800781 35.601562 84.398438 35.601562 C 84 35.601562 83.601562 35.601562 83.199219 35.199219 L 83.601562 30.800781 C 83.601562 30.800781 84 31.199219 84 31.199219 C 84.800781 31.199219 85.601562 30.800781 86 30 C 86.398438 29.601562 86.398438 28.800781 86.800781 27.601562 C 86.800781 26.398438 86.800781 25.199219 86.800781 24 L 87.199219 16.398438 L 102.800781 16.398438 L 102.800781 35.199219 L 97.199219 35.199219 L 97.199219 19.199219 L 98.398438 20.398438 L 90.800781 20.398438 L 92 19.199219 L 91.601562 23.601562 C 91.601562 25.601562 91.601562 27.199219 91.199219 28.800781 C 91.199219 30 90.800781 31.601562 90.398438 32.398438 C 90 33.601562 89.199219 34.398438 88.398438 34.800781 C 87.601562 35.601562 86.800781 35.601562 85.601562 35.601562 Z M 102.800781 35.199219 L 111.199219 16.398438 L 116.398438 16.398438 L 124.800781 35.199219 L 119.199219 35.199219 L 112.800781 18.800781 L 114.800781 18.800781 L 108 35.199219 Z M 107.199219 31.601562 L 108.800781 27.601562 L 118 27.601562 L 119.199219 31.601562 Z M 124.800781 35.199219 L 124.800781 16.398438 L 130 16.398438 L 130 35.199219 Z M 130.398438 14.800781 C 129.601562 14.800781 129.199219 14.398438 128.800781 14 C 128.398438 13.601562 128.398438 13.199219 128.398438 12.398438 C 128.398438 12 128.398438 11.601562 128.800781 11.199219 C 129.199219 10.800781 129.601562 10.398438 130.398438 10.398438 C 131.199219 10.398438 131.601562 10.800781 132 11.199219 C 132.398438 11.601562 132.398438 12 132.398438 12.398438 C 132.398438 13.199219 132.398438 13.601562 132 14 C 131.601562 14.398438 131.199219 14.800781 130.398438 14.800781 Z M 124.398438 14.800781 C 124 14.800781 123.601562 14.398438 123.199219 14 C 122.800781 13.601562 122.398438 13.199219 122.398438 12.398438 C 122.398438 12 122.800781 11.601562 123.199219 11.199219 C 123.601562 10.800781 124 10.398438 124.398438 10.398438 C 125.199219 10.398438 125.601562 10.800781 126 11.199219 C 126.398438 11.601562 126.800781 12 126.800781 12.398438 C 126.800781 13.199219 126.398438 13.601562 126 14 C 125.601562 14.398438 125.199219 14.800781 124.398438 14.800781 Z M 132 35.199219 L 132 16.398438 L 141.199219 16.398438 C 143.601562 16.398438 145.199219 16.800781 146.800781 17.601562 C 148 18.398438 148.398438 19.601562 148.398438 21.199219 C 148.398438 22.800781 148 24 146.800781 24.800781 C 145.601562 25.601562 144 26 142 26 L 142.398438 24.800781 C 144.800781 24.800781 146.398438 25.199219 147.601562 26 C 148.800781 27.199219 149.601562 28.398438 149.601562 30 C 149.601562 31.601562 148.800781 32.800781 147.601562 34 C 146 34.800781 144.398438 35.199219 142 35.199219 Z M 137.199219 31.601562 L 141.601562 31.601562 C 142.398438 31.601562 142.800781 31.199219 143.199219 30.800781 C 143.601562 30.800781 144 30 144 29.601562 C 144 28.800781 143.601562 28.398438 143.199219 28 C 142.800781 27.601562 142.398438 27.601562 141.601562 27.601562 L 137.199219 27.601562 Z M 137.199219 24 L 140.800781 24 C 141.601562 24 142 23.601562 142.398438 23.601562 C 142.800781 23.199219 143.199219 22.800781 143.199219 22 C 143.199219 21.199219 142.800781 20.800781 142.398438 20.800781 C 142 20.398438 141.601562 20 140.800781 20 L 137.199219 20 Z M 137.199219 24 "/>
<path style=" stroke:none;fill-rule:nonzero;fill:rgb(100%,100%,100%);fill-opacity:1;" d="M 159.199219 35.199219 L 159.199219 31.601562 L 166.800781 24.800781 C 167.199219 24 167.601562 23.601562 168 23.199219 C 168 22.800781 168.398438 22.398438 168.398438 22.398438 C 168.398438 22 168.398438 21.601562 168.398438 21.199219 C 168.398438 20.800781 168.398438 20.398438 168 20 C 167.601562 19.601562 166.800781 19.199219 166 19.199219 C 165.199219 19.199219 164.398438 19.601562 164 19.601562 C 163.199219 20 162.800781 20.800781 162.398438 21.199219 L 158 18.800781 C 158.800781 17.601562 160 16.398438 161.199219 16 C 162.800781 15.199219 164.398438 14.800781 166.398438 14.800781 C 168 14.800781 169.199219 14.800781 170.398438 15.601562 C 171.601562 16 172.800781 16.800781 173.199219 17.601562 C 174 18.398438 174.398438 19.601562 174.398438 20.800781 C 174.398438 21.601562 174.398438 22 174 22.800781 C 174 23.601562 173.601562 24 173.199219 24.800781 C 172.398438 25.601562 172 26.398438 170.800781 27.199219 L 164.800781 32.800781 L 164 30.800781 L 174.800781 30.800781 L 174.800781 35.199219 Z M 174 31.601562 L 174 27.601562 L 183.199219 15.199219 L 188.800781 15.199219 L 180 27.601562 L 177.601562 26.800781 L 193.199219 26.800781 L 193.199219 31.601562 Z M 184.800781 35.199219 L 184.800781 23.601562 L 190.398438 23.601562 L 190.398438 35.199219 Z M 184.800781 35.199219 "/>
</g>
</svg>
