<?xml version="1.0" encoding="UTF-8"?>
<svg xmlns="http://www.w3.org/2000/svg" xmlns:xlink="http://www.w3.org/1999/xlink" width="160px" height="35px" viewBox="0 0 158 35" version="1.1">
<g id="surface1">
<path style="fill-rule:nonzero;fill:rgb(100%,100%,100%);fill-opacity:1;stroke-width:0.900005;stroke-linecap:butt;stroke-linejoin:miter;stroke:rgb(100%,100%,100%);stroke-opacity:1;stroke-miterlimit:4;" d="M 102.003313 11 L 119.999258 11 C 123.999951 11 126.996885 12 130.000989 12 C 132.001335 13 134.001681 14 134.998269 15 C 136.002027 17 136.998616 19 136.998616 21 L 136.998616 30 C 136.998616 32 136.002027 35 134.998269 36 C 134.001681 38 132.001335 39 128.997231 40 C 126.000297 40 123.003362 41 117.998912 41 L 113.001632 41 L 113.001632 55 L 102.003313 55 Z M 119.00267 33 C 121.999604 33 123.999951 33 124.996539 33 C 126.000297 32 126.996885 31 126.996885 29 L 126.996885 22 C 126.996885 21 126.000297 20 124.996539 19 C 123.999951 19 121.999604 19 119.00267 19 L 113.001632 19 L 113.001632 33 Z M 144.003412 11 L 155.001731 11 L 155.001731 55 L 144.003412 55 Z M 163.999703 11 L 182.002818 11 C 186.003511 11 189.000445 12 191.000791 12 C 193.997725 13 195.001483 14 195.998072 15 C 197.00183 16 197.00183 18 197.00183 21 L 197.00183 26 C 197.00183 27 197.00183 28 195.998072 29 C 195.001483 30 193.997725 31 193.001137 32 C 193.997725 32 195.998072 33 197.00183 34 C 199.002176 35 199.002176 37 199.002176 38 L 199.002176 45 C 199.002176 49 197.998418 51 195.001483 53 C 191.997379 54 187.996687 55 182.002818 55 L 163.999703 55 Z M 182.002818 29 C 182.999407 29 184.999753 29 184.999753 29 C 186.003511 28 187.000099 28 187.000099 27 C 187.000099 27 187.000099 26 187.000099 25 L 187.000099 22 C 187.000099 21 187.000099 21 187.000099 20 C 187.000099 20 186.003511 19 184.999753 19 C 184.999753 19 182.999407 19 180.999061 19 L 174.001434 19 L 174.001434 29 Z M 182.002818 47 C 184.003165 47 186.003511 47 187.000099 46 C 187.996687 46 189.000445 45 189.000445 44 L 189.000445 40 C 189.000445 39 189.000445 37 187.996687 37 C 187.000099 36 184.999753 36 182.999407 36 L 174.001434 36 L 174.001434 47 Z M 207.00356 11 L 216.998121 11 L 216.998121 29 L 235.997824 29 L 235.997824 11 L 245.999555 11 L 245.999555 55 L 235.997824 55 L 235.997824 36 L 216.998121 36 L 216.998121 55 L 207.00356 55 Z M 254.997528 11 L 289.003412 11 L 289.003412 19 L 266.003016 19 L 266.003016 29 L 285.999308 29 L 285.999308 36 L 266.003016 36 L 266.003016 47 L 289.003412 47 L 289.003412 55 L 254.997528 55 Z M 254.997528 11 " transform="matrix(0.544828,0,0,0.546875,0,0)"/>
<path style=" stroke:none;fill-rule:evenodd;fill:rgb(80%,0%,0%);fill-opacity:1;" d="M 1.632812 0 L 46.308594 0 C 46.855469 0 47.398438 0.546875 47.398438 1.09375 L 47.398438 33.90625 C 47.398438 34.453125 46.855469 35 46.308594 35 L 1.632812 35 C 1.089844 35 0.542969 34.453125 0.542969 33.90625 L 0.542969 1.09375 C 0.542969 0.546875 1.089844 0 1.632812 0 Z M 1.632812 0 "/>
<path style="fill-rule:nonzero;fill:rgb(100%,100%,100%);fill-opacity:1;stroke-width:0.900005;stroke-linecap:butt;stroke-linejoin:miter;stroke:rgb(100%,100%,100%);stroke-opacity:1;stroke-miterlimit:4;" d="M 12.998665 43 C 12.998665 41 12.998665 39 14.002423 37 C 16.002769 35 16.999357 34 18.999703 33 C 21.000049 33 23.000396 32 25.000742 31 C 27.001088 30 29.001434 30 29.998022 29 C 31.00178 28 31.998368 27 31.998368 26 L 31.998368 21 C 31.998368 19 31.00178 18 29.998022 18 C 29.001434 17 27.001088 17 25.000742 17 C 21.996638 17 18.003115 18 12.998665 19 L 12.998665 12 C 18.003115 11 21.996638 10 27.001088 10 C 31.998368 10 35.999061 11 37.999407 13 C 39.999753 14 42.000099 17 42.000099 20 L 42.000099 26 C 42.000099 28 41.003511 30 39.999753 32 C 37.999407 33 37.002818 35 35.002472 35 C 33.002126 36 31.00178 37 29.001434 38 C 27.001088 38 25.000742 39 23.996984 40 C 21.996638 41 21.996638 42 21.996638 44 L 21.996638 46 L 42.000099 46 L 42.000099 53 L 12.998665 53 Z M 63.000148 44 L 42.996687 44 L 42.996687 37 L 60.003214 11 L 71.001533 11 L 71.001533 38 L 75.002225 38 L 75.002225 44 L 71.001533 44 L 71.001533 53 L 63.000148 53 Z M 63.000148 38 L 63.000148 20 L 50.998072 38 Z M 63.000148 38 " transform="matrix(0.544828,0,0,0.546875,0,0)"/>
</g>
</svg>
