<?xml version="1.0" standalone="no"?>
<!DOCTYPE svg PUBLIC "-//W3C//DTD SVG 20010904//EN"
 "http://www.w3.org/TR/2001/REC-SVG-20010904/DTD/svg10.dtd">
<svg version="1.0" xmlns="http://www.w3.org/2000/svg"
 width="600.000000pt" height="506.000000pt" viewBox="0 0 600.000000 506.000000"
 preserveAspectRatio="xMidYMid meet">

<g transform="translate(0.000000,506.000000) scale(0.100000,-0.100000)"
fill="#000000" stroke="none">
<path d="M2896 4619 c-20 -24 -44 -70 -57 -108 -12 -36 -30 -82 -40 -101 -10
-19 -32 -69 -49 -110 -18 -41 -37 -80 -44 -86 -6 -7 -47 -19 -91 -27 -121 -22
-334 -92 -379 -124 -42 -30 -57 -60 -36 -73 12 -8 91 14 285 78 155 51 175 55
175 40 0 -27 -47 -169 -90 -273 -60 -142 -128 -329 -136 -371 -4 -22 -13 -51
-20 -66 -8 -15 -30 -77 -50 -138 -40 -125 -36 -121 -151 -140 -73 -12 -100
-28 -89 -55 6 -17 50 -19 111 -5 22 5 44 5 49 0 4 -4 -1 -36 -12 -72 -11 -34
-24 -83 -27 -108 -4 -25 -13 -65 -20 -90 -55 -177 -125 -493 -125 -568 0 -49
4 -63 31 -94 41 -51 81 -60 194 -47 82 9 136 19 340 63 39 9 79 16 90 16 40 0
393 123 493 171 93 45 101 51 92 69 -14 26 -71 27 -94 1 -9 -10 -38 -24 -64
-31 -26 -7 -96 -30 -157 -50 -314 -108 -494 -153 -713 -179 -84 -10 -96 -10
-124 6 l-30 18 5 75 c3 41 21 134 40 205 19 72 40 157 47 190 14 70 123 402
142 431 4 6 52 17 105 23 54 6 130 16 168 21 117 16 294 38 405 50 184 19 193
22 204 52 5 15 7 30 4 34 -3 3 -68 -6 -145 -20 -144 -26 -250 -39 -493 -56
-80 -6 -160 -13 -179 -16 l-34 -6 7 56 c5 46 44 164 112 341 48 124 94 259 94
275 0 9 8 37 18 61 11 24 36 89 57 144 21 55 42 105 47 112 29 38 418 87 808
104 135 5 251 12 258 14 6 2 12 11 12 19 0 24 -94 29 -323 17 -264 -14 -383
-25 -565 -52 -79 -12 -146 -18 -149 -15 -8 8 42 154 84 241 18 38 33 79 33 90
0 12 11 36 25 55 30 41 31 50 6 50 -11 0 -35 -19 -55 -41z"/>
<path d="M3806 1798 c-2 -7 -14 -58 -26 -113 -12 -55 -28 -120 -35 -145 -7
-25 -19 -70 -25 -100 -7 -30 -16 -66 -21 -80 -5 -14 -11 -43 -15 -64 -3 -22
-10 -49 -14 -61 -5 -12 -12 -85 -16 -162 -8 -157 0 -186 58 -233 69 -54 219
-31 262 40 9 16 25 32 36 35 11 4 20 10 20 14 0 4 11 13 25 19 14 6 25 18 25
27 0 19 1 19 -57 -6 -26 -12 -70 -28 -98 -36 -27 -8 -55 -19 -62 -25 -6 -5
-37 -12 -69 -15 l-57 -6 6 114 c6 121 24 217 80 444 38 154 57 249 57 284 0
47 -63 105 -74 69z"/>
<path d="M2520 1754 c-52 -8 -101 -12 -107 -9 -7 2 -17 -4 -22 -14 -6 -10 -34
-30 -63 -45 -29 -15 -84 -58 -122 -96 -69 -68 -69 -69 -56 -100 26 -63 93 -79
88 -21 -1 16 4 36 12 46 17 21 88 56 94 46 5 -7 -6 -53 -48 -196 -36 -121 -45
-162 -57 -255 -27 -214 -28 -233 -11 -263 15 -25 56 -46 68 -35 2 3 1 32 -5
64 -5 33 -5 66 -1 74 4 8 10 40 14 70 4 30 12 60 17 66 5 7 12 32 15 56 7 60
20 69 48 34 18 -23 28 -28 48 -23 29 8 187 110 238 156 19 17 40 31 45 31 19
0 120 90 137 121 9 18 28 44 41 58 35 38 41 74 19 124 -54 121 -146 147 -392
111z m295 -74 c62 -23 41 -93 -52 -173 -135 -116 -179 -148 -228 -172 -27 -13
-65 -35 -84 -49 -34 -26 -81 -35 -81 -16 0 25 23 110 29 110 4 0 8 6 9 13 1 6
9 48 17 92 9 44 19 95 22 113 5 28 13 37 51 53 80 35 259 51 317 29z"/>
<path d="M5045 1739 c-53 -22 -135 -80 -176 -126 -14 -16 -44 -45 -68 -66
-106 -96 -120 -233 -31 -319 38 -36 81 -36 210 -3 110 28 240 34 240 11 0 -26
-161 -165 -226 -195 -23 -11 -45 -25 -49 -30 -14 -24 -193 -101 -232 -101 -28
0 -30 -27 -7 -72 15 -29 18 -30 61 -24 27 3 83 27 141 60 54 30 110 58 125 61
15 4 31 13 35 19 4 7 39 35 78 64 74 54 127 112 144 156 11 30 -12 110 -43
144 -18 20 -30 22 -114 22 -67 0 -123 -7 -195 -25 -161 -40 -182 -34 -154 42
10 26 30 64 45 83 15 19 34 47 44 62 9 15 32 35 50 44 17 9 41 24 52 34 58 52
146 91 206 92 56 2 74 -11 74 -50 0 -35 26 -36 38 -2 12 35 -26 118 -59 131
-42 15 -135 9 -189 -12z"/>
<path d="M4466 1733 c-37 -11 -54 -12 -73 -4 -34 15 -43 14 -43 -8 0 -22 -45
-41 -95 -41 -18 0 -43 -9 -56 -19 -23 -19 -24 -20 -7 -48 16 -26 21 -28 79
-26 l61 3 -7 -63 c-3 -34 -15 -123 -25 -197 -11 -74 -22 -164 -25 -200 -3 -36
-8 -88 -11 -116 l-5 -52 -45 -7 c-27 -4 -44 -11 -44 -20 0 -21 59 -65 86 -65
14 0 41 -7 61 -15 45 -19 43 -19 43 9 0 20 7 26 43 34 149 36 197 55 197 78 0
31 -45 38 -125 21 -113 -25 -115 -25 -115 26 0 35 14 154 44 382 3 22 11 80
17 128 l11 88 42 19 c22 10 68 24 101 30 88 18 87 17 83 47 -3 27 -5 28 -73
30 -39 1 -92 -5 -119 -14z"/>
<path d="M1420 1730 c-86 -19 -217 -43 -240 -44 -62 -4 -250 -86 -250 -109 0
-6 11 -25 24 -42 24 -30 25 -30 58 -13 38 19 83 30 90 23 3 -3 -10 -49 -29
-103 -19 -53 -39 -118 -44 -145 -9 -41 -16 -50 -45 -62 -31 -13 -34 -17 -28
-42 4 -15 12 -34 17 -42 6 -7 11 -54 12 -105 0 -81 3 -95 26 -131 14 -22 41
-55 59 -72 31 -30 39 -33 95 -33 38 0 68 5 81 15 10 8 33 15 50 15 16 0 35 5
40 10 6 6 30 21 53 34 52 27 82 69 63 88 -9 9 -22 8 -59 -5 -27 -9 -92 -28
-146 -42 -178 -46 -214 -32 -202 77 13 121 26 148 72 148 13 0 98 30 183 66
19 8 49 17 65 20 17 3 39 11 50 18 11 7 33 16 48 20 22 5 28 12 25 29 -3 20
-8 22 -68 21 -66 0 -98 -6 -225 -43 -38 -11 -72 -18 -76 -15 -8 5 1 42 24 94
8 19 30 77 49 129 30 86 36 95 68 109 19 8 66 18 105 22 38 5 71 13 73 19 2 6
17 11 33 11 32 0 89 36 89 57 0 30 -62 40 -140 23z"/>
<path d="M3087 1694 c-15 -15 -32 -45 -38 -68 -6 -22 -17 -54 -24 -71 -7 -16
-26 -79 -41 -140 -23 -95 -27 -132 -28 -270 -1 -184 0 -187 86 -279 52 -54 56
-56 105 -56 46 0 53 3 77 34 14 19 26 41 26 48 0 24 24 68 38 68 6 0 12 8 12
18 0 11 14 38 30 60 30 41 39 69 20 57 -6 -3 -7 1 -4 10 4 9 20 23 36 31 22
12 28 20 23 35 -7 22 12 79 26 79 5 0 9 8 9 18 0 10 5 23 12 30 7 7 12 51 12
119 1 101 -1 111 -27 155 -49 84 -134 133 -247 143 -73 6 -77 5 -103 -21z
m141 -76 c8 -8 15 -8 26 1 18 15 93 6 112 -13 34 -34 46 -80 40 -143 -6 -61
-40 -170 -71 -230 -8 -15 -15 -33 -15 -39 0 -6 -12 -29 -27 -50 -14 -21 -35
-61 -45 -88 -24 -61 -58 -106 -106 -140 -50 -34 -79 -34 -93 1 -13 36 -13 341
0 424 14 87 44 161 93 231 40 57 63 69 86 46z"/>
<path d="M1633 1197 c-3 -5 -2 -19 1 -31 4 -17 15 -25 38 -30 38 -6 309 1 316
9 3 3 1 18 -4 33 l-9 27 -169 0 c-92 0 -170 -4 -173 -8z"/>
</g>
</svg>
